/* XPM */
static char * arrowright_xpm[] = {
"14 14 5 1",
" 	c None",
".	c #A9A9A9",
"+	c #FFFFFF",
"@	c #ACACAC",
"#	c #AAAAAA",
"              ",
"     ....     ",
"   ........   ",
"  ....+.....  ",
"  ....++....  ",
" .....+++.... ",
" .....++++... ",
" .....++++@.. ",
" .....+++@... ",
"  ....++#...  ",
"  ....+#....  ",
"   ........   ",
"     ....     ",
"              "};
