/* XPM */
static char * arrowdown_xpm[] = {
"14 14 3 1",
" 	c None",
".	c #A9A9A9",
"+	c #FFFFFF",
"              ",
"     ....     ",
"   ........   ",
"  ..........  ",
"  ..........  ",
" ............ ",
" ............ ",
" ..++++++++.. ",
" ...++++++... ",
" ....++++.... ",
" .....++..... ",
" ............ ",
" ............ ",
" ............ "};
